<svg width="56" height="56" viewBox="0 0 56 56" fill="none" xmlns="http://www.w3.org/2000/svg">
<path d="M48.018 40.9603C48.3126 39.3909 48.3051 37.7793 47.9957 36.2127L52.2449 25.9234C52.2454 25.9165 52.2454 25.9097 52.2449 25.9029C52.9335 24.0113 53.9426 22.2534 55.2278 20.7066C55.5475 20.3677 55.6761 19.8902 55.5701 19.4359L53.8277 11.8862C53.807 11.8073 53.7758 11.7315 53.735 11.6609C53.7275 11.6469 53.7248 11.6302 53.7173 11.6172C53.7099 11.6041 53.6774 11.5725 53.6589 11.5483C53.6209 11.4925 53.577 11.441 53.5281 11.3947C53.4958 11.3719 53.462 11.3514 53.4269 11.3332C53.3817 11.2998 53.3336 11.2705 53.2831 11.2457C53.2132 11.2192 53.1403 11.2014 53.066 11.1927C53.0447 11.1927 53.0261 11.1787 53.0048 11.1768C52.827 11.1649 52.6495 11.2047 52.4936 11.2913C52.4797 11.2988 52.463 11.3016 52.4491 11.31H52.4398L45.8887 15.4125C45.492 15.659 45.2458 16.0894 45.2337 16.5575C45.0517 18.5675 44.5241 20.5306 43.6741 22.3598V22.3701L41.5504 27.5208C40.5081 26.9648 39.3923 26.5605 38.2364 26.3199C38.6739 23.2898 38.8348 20.2258 38.717 17.1663C40.4441 15.0872 41.2729 12.4025 41.0197 9.70786C40.4399 4.28252 35.5533 0.364323 35.3445 0.199552C35.0308 -0.048356 34.5941 -0.0670003 34.2605 0.153267C33.9269 0.373535 33.7712 0.783286 33.874 1.17049C34.3518 2.97087 33.938 4.87085 30.4087 8.77788C28.8231 10.3141 28.3205 12.6599 29.1368 14.7143C29.4489 15.5001 29.896 16.2248 30.4579 16.8554C30.2334 18.2936 30.0571 19.6556 29.9356 20.9821C29.7263 23.1762 29.6724 25.3824 29.7741 27.5841C28.9465 28.0344 28.1716 28.5761 27.464 29.1992L22.9643 9.89218C22.9643 9.87263 22.9457 9.85867 22.9401 9.84098C22.925 9.77891 22.9032 9.71867 22.8752 9.66131L18.279 1.14442C17.819 0.291966 16.8473 -0.146086 15.9066 0.074969C14.9659 0.296024 14.2891 1.12148 14.2543 2.09023L13.9054 11.767C13.9056 11.8369 13.9134 11.9065 13.9286 11.9746C13.9286 11.9895 13.9286 12.0025 13.9286 12.0165L18.5193 31.6745C17.7951 31.7066 17.0762 31.8142 16.3742 31.9957L11.3243 19.7589C10.9194 18.8235 9.8454 18.3821 8.90284 18.7637L1.18465 21.9698C0.240044 22.3654 -0.208858 23.4522 0.179862 24.4023L7.02872 40.9799C3.0147 41.1913 -0.101095 44.5723 0.00251039 48.6041C0.106116 52.6359 3.39141 55.8513 7.41097 55.8549H48.2332C50.8849 55.8163 53.3147 54.3612 54.6073 52.0377C55.8998 49.7142 55.8588 46.8754 54.4996 44.5905C53.1405 42.3056 50.6697 40.9218 48.018 40.9603ZM47.0726 16.8647L50.9618 14.4294L49.585 17.7658C49.3888 18.2409 49.6135 18.7856 50.0869 18.9825C50.5604 19.1794 51.1033 18.9539 51.2995 18.4789L52.6764 15.1425L53.7071 19.623C52.6043 20.9729 51.6984 22.4734 51.0166 24.0792C50.0493 24.5291 48.9385 24.5525 47.9533 24.1436C46.9681 23.7348 46.1983 22.931 45.8303 21.927C46.4819 20.3073 46.9002 18.6027 47.0726 16.8647ZM44.9387 24.1733C45.5525 24.9262 46.349 25.508 47.2516 25.8629C47.9691 26.1725 48.7409 26.3358 49.5219 26.3432C49.7098 26.3425 49.8975 26.331 50.0841 26.3088L47.1236 33.4768C46.2371 31.5156 44.8657 29.8144 43.1397 28.5346L44.9387 24.1733ZM32.2281 17.5247L36.8893 17.8105C36.918 18.68 36.9078 19.5792 36.8791 20.4924C35.3263 20.6038 33.7658 20.5281 32.2309 20.2672C32.114 20.2504 31.9999 20.2374 31.8839 20.2215C31.9767 19.3446 32.0899 18.4565 32.2263 17.5247H32.2281ZM31.7856 10.0281C34.2488 7.30146 35.5254 5.20412 35.8223 3.23245C37.5929 5.06034 38.7617 7.38948 39.1707 9.90521C39.3655 12.0953 38.6907 14.2739 37.2929 15.9673C35.4602 15.8556 33.6476 15.7439 31.8552 15.6322C31.085 14.9097 30.6419 13.9032 30.6284 12.8454C30.6149 11.7876 31.0322 10.7701 31.7837 10.0281H31.7856ZM31.7151 22.0768L31.9841 22.1122C33.1796 22.2977 34.3864 22.4007 35.596 22.4204C35.9801 22.4204 36.3846 22.3896 36.79 22.358C36.7056 23.5561 36.5673 24.8072 36.392 26.1002C36.1628 26.0881 35.9383 26.0658 35.7082 26.0658C34.3075 26.0683 32.9172 26.3085 31.5963 26.7761C31.5535 25.2087 31.5925 23.6401 31.7132 22.0768H31.7151ZM24.5387 32.9629L21.8843 21.6179C21.7602 21.1257 21.266 20.8241 20.7733 20.9398C20.2806 21.0556 19.9713 21.5461 20.0779 22.0424L22.4633 32.2535C21.8074 32.0182 21.1299 31.8489 20.4407 31.7481L16.3687 14.3121C16.9391 14.5727 17.5585 14.7079 18.1853 14.7087C18.2437 14.7087 18.3059 14.7003 18.3653 14.6975L19.0212 17.5079C19.0919 17.8369 19.334 18.102 19.6544 18.2012C19.9749 18.3005 20.3238 18.2185 20.567 17.9868C20.8102 17.7551 20.9098 17.4097 20.8276 17.0835L20.1707 14.2712C20.8002 13.9916 21.3554 13.5675 21.7915 13.0331L25.9313 30.7939C25.3937 31.4667 24.927 32.1936 24.5387 32.9629ZM18.87 12.7622C17.6834 12.9931 16.4719 12.5063 15.7721 11.5175L15.8899 8.23888C16.2128 8.29938 16.5403 8.33054 16.8687 8.33197C17.1859 8.33331 17.5022 8.29801 17.8114 8.22678C18.4373 8.06186 19.0227 7.76972 19.5315 7.36848L21.0938 10.2617C20.9077 11.4622 20.0373 12.4415 18.87 12.764V12.7622ZM16.3288 1.88729C16.4552 1.85792 16.5856 1.9165 16.6479 2.03065L18.6371 5.72171C18.2783 6.04742 17.8498 6.28627 17.3846 6.41989C16.9091 6.50745 16.42 6.4842 15.9549 6.35193L16.1061 2.15725C16.1112 2.02717 16.2024 1.91659 16.3288 1.88729ZM9.61444 20.4803L10.3233 22.1988L6.89049 23.625C6.48352 23.7964 6.25331 24.2318 6.34 24.6661C6.42669 25.1003 6.80629 25.4132 7.24768 25.4142C7.36958 25.4139 7.49026 25.3899 7.60302 25.3434L11.0358 23.9163L11.7456 25.6366L10.0282 26.3507C9.61894 26.5206 9.38647 26.9572 9.47317 27.393C9.55987 27.8289 9.94154 28.1424 10.3845 28.1417C10.5061 28.1413 10.6264 28.1173 10.7389 28.071L12.4562 27.357L13.166 29.0773L9.73042 30.5062C9.32112 30.6762 9.08866 31.1127 9.17535 31.5486C9.26205 31.9844 9.64373 32.298 10.0867 32.2973C10.2083 32.297 10.3286 32.2729 10.4411 32.2266L13.8739 30.8004L14.6244 32.6185C11.6012 34.0031 9.38425 36.7105 8.61708 39.955L1.89254 23.6864L9.61444 20.4803ZM48.2332 53.9931H7.41097C4.33658 53.9931 1.8443 51.4924 1.8443 48.4076C1.8443 45.3229 4.33658 42.8222 7.41097 42.8222C7.94855 42.8204 8.48345 42.8982 8.9984 43.053C9.27659 43.1373 9.57807 43.086 9.81296 42.9143C10.0478 42.7426 10.189 42.4704 10.1943 42.1789C10.2603 38.8612 12.1718 35.8598 15.1446 34.4058C18.1174 32.9519 21.6513 33.2901 24.2965 35.2818C24.5303 35.4564 24.8322 35.5106 25.1118 35.4283C25.3914 35.3459 25.6162 35.1365 25.7188 34.8629C27.5314 30.0158 32.5411 27.1647 37.6175 28.0911C42.6939 29.0175 46.3822 33.456 46.3777 38.6331C46.3795 39.6977 46.2215 40.7565 45.9091 41.774C45.8116 42.0905 45.8892 42.4352 46.1127 42.6791C46.3363 42.9229 46.6721 43.0292 46.9946 42.9581C47.4014 42.8682 47.8167 42.8227 48.2332 42.8222C51.3076 42.8222 53.7999 45.3229 53.7999 48.4076C53.7999 51.4924 51.3076 53.9931 48.2332 53.9931Z" fill="white"/>
<path d="M35.88 14.6156C36.1712 14.6167 36.446 14.4806 36.6222 14.2479C37.7805 12.6749 38.2281 10.6865 37.8561 8.76671C37.777 8.43844 37.5269 8.17893 37.2026 8.08858C36.8783 7.99823 36.5306 8.09121 36.2941 8.33156C36.0577 8.5719 35.9695 8.9219 36.0637 9.24613C36.2858 10.6103 35.9544 12.0069 35.1433 13.1243C34.9325 13.4064 34.8986 13.7838 35.0557 14.0992C35.2129 14.4145 35.5341 14.6137 35.8855 14.6137L35.88 14.6156Z" fill="white"/>
<path d="M34.6598 42.8222C33.9699 42.8243 33.2895 42.9835 32.6697 43.2876C31.0007 40.9961 27.8843 40.3249 25.425 41.7271C22.9657 43.1293 21.9455 46.1592 23.0533 48.7707C23.1991 49.1139 23.535 49.3367 23.9068 49.3367C24.0319 49.337 24.1556 49.3116 24.2705 49.2622C24.4969 49.1654 24.6757 48.9824 24.7676 48.7533C24.8595 48.5243 24.8569 48.268 24.7604 48.0409C24.5584 47.5685 24.4543 47.0598 24.4542 46.5458C24.4542 44.4893 26.1158 42.8222 28.1654 42.8222C29.6048 42.815 30.9159 43.6519 31.5193 44.9633C31.5393 44.9936 31.561 45.0228 31.5842 45.0508C31.5989 45.0827 31.6153 45.1138 31.6334 45.1439C31.6501 45.1643 31.6742 45.1737 31.6928 45.1932C31.7363 45.2385 31.7845 45.2791 31.8366 45.3142C31.8829 45.35 31.9326 45.3812 31.985 45.4073C32.0389 45.43 32.0948 45.4474 32.152 45.4594C32.2091 45.4745 32.2675 45.4835 32.3264 45.4864C32.447 45.4855 32.5666 45.4654 32.6809 45.4269C32.7056 45.4223 32.73 45.4164 32.7541 45.4092C32.7843 45.3896 32.8131 45.3682 32.8404 45.3449C32.8738 45.3301 32.9063 45.3133 32.9378 45.2947C33.4252 44.8992 34.033 44.6837 34.6598 44.684C35.7446 44.6858 36.7296 45.3198 37.1834 46.3084C37.396 46.7763 37.9464 46.9826 38.4127 46.7692C38.879 46.5559 39.0846 46.0036 38.8719 45.5358C38.1164 43.8836 36.4715 42.8238 34.6598 42.8222Z" fill="white"/>
<path d="M16.3956 36.3533C16.2555 36.3989 12.9777 37.5365 12.9777 40.9604C12.9777 41.4745 13.393 41.8913 13.9054 41.8913C14.4178 41.8913 14.8332 41.4745 14.8332 40.9604C14.909 39.6617 15.7605 38.5383 16.9875 38.1183C17.4743 37.9543 17.7364 37.4254 17.5729 36.937C17.4095 36.4485 16.8824 36.1856 16.3956 36.3496V36.3533Z" fill="white"/>
<path d="M29.4523 35.347C29.526 35.3657 29.6017 35.3751 29.6777 35.3749C30.1029 35.3744 30.4734 35.084 30.5767 34.6702C31.0038 32.9319 32.5375 31.6954 34.3213 31.6512C34.8337 31.65 35.248 31.2321 35.2467 30.718C35.2454 30.2039 34.829 29.7881 34.3166 29.7894C31.6796 29.8246 29.4008 31.6465 28.7778 34.2178C28.6533 34.7165 28.9553 35.222 29.4523 35.347Z" fill="white"/>
</svg>
