<svg width="56" height="44" viewBox="0 0 56 44" fill="none" xmlns="http://www.w3.org/2000/svg">
<path d="M52.7336 21.4108H46.3388V4.65447C46.3357 2.08516 44.2628 0.00305455 41.7049 0H13.9016C11.3437 0.00305455 9.27087 2.08516 9.26772 4.65458V10.24H4.18342C1.87401 10.2425 0.00249795 12.1224 0 14.4421V39.5506C0.00249795 41.8703 1.87401 43.7501 4.18342 43.7527H18.9858C20.7496 43.7473 22.3201 42.6297 22.9098 40.9599H38.9246C39.4365 40.9599 39.8513 40.5432 39.8513 40.0291V38.1672C39.8513 36.6249 38.6065 35.3745 37.071 35.3745H34.2907V31.6509H41.7049V40.8669C41.7049 42.4607 42.9913 43.7527 44.5779 43.7527H52.7335C54.3202 43.7527 55.6064 42.4606 55.6064 40.8669V24.2967C55.6066 22.7029 54.3202 21.4108 52.7336 21.4108ZM21.3159 39.5506C21.3149 40.8427 20.2723 41.8898 18.9859 41.8909H4.18342C2.89708 41.8899 1.85457 40.8427 1.85348 39.5506V39.0982H21.3158V39.5506H21.3159ZM21.3159 37.2363H1.85359V16.7564H21.3159V37.2363ZM21.3159 14.8945H1.85359V14.4421C1.85457 13.15 2.89719 12.1029 4.18352 12.1018H18.9859C20.2723 12.1028 21.3148 13.15 21.3159 14.4421V14.8945ZM37.071 37.2363C37.5829 37.2363 37.9977 37.6532 37.9977 38.1672V39.0981H23.1694V37.2363H37.071ZM23.1694 35.3745V31.6509H32.4371V35.3745H23.1694ZM41.7049 29.789H33.3639H23.1694V26.9963H41.7049V29.789ZM41.7049 24.2967V25.1345H23.1694V14.4421C23.1668 12.1224 21.2952 10.2425 18.9859 10.24H11.1213V4.65458C11.1213 3.11226 12.3661 1.86185 13.9016 1.86185H41.7049C43.2404 1.86185 44.4852 3.11215 44.4852 4.65458V21.4202C42.9385 21.4703 41.7092 22.7422 41.7049 24.2967ZM53.753 40.8669C53.753 41.4324 53.2965 41.8909 52.7335 41.8909H44.5779C44.0149 41.8909 43.5584 41.4324 43.5584 40.8669V40.0291H53.753V40.8669ZM53.753 38.1672H43.5584V26.9963H53.753V38.1672ZM53.753 25.1345H43.5584V24.2967C43.5584 23.7312 44.0149 23.2727 44.5779 23.2727H52.7335C53.2965 23.2727 53.753 23.7312 53.753 24.2967V25.1345Z" fill="white"/>
</svg>
